<svg width="51" height="51" viewBox="0 0 51 51" fill="none" xmlns="http://www.w3.org/2000/svg">
<path d="M13.78 51H3.35C2.46333 51 1.81 50.8133 1.39 50.44C1.01667 50.02 0.83 49.3667 0.83 48.48V3.12C0.83 2.23333 1.01667 1.60333 1.39 1.23C1.81 0.809998 2.46333 0.599998 3.35 0.599998H14.62C15.3667 0.599998 15.9733 0.763331 16.44 1.09C16.9533 1.41666 17.42 1.95333 17.84 2.7L24.14 14.11C24.3733 14.53 24.56 14.8333 24.7 15.02C24.8867 15.2067 25.12 15.3 25.4 15.3H26.03C26.31 15.3 26.52 15.2067 26.66 15.02C26.8467 14.8333 27.0567 14.53 27.29 14.11L33.52 2.7C33.94 1.95333 34.3833 1.41666 34.85 1.09C35.3633 0.763331 35.9933 0.599998 36.74 0.599998H48.08C48.9667 0.599998 49.5967 0.809998 49.97 1.23C50.39 1.60333 50.6 2.23333 50.6 3.12V48.48C50.6 49.3667 50.39 50.02 49.97 50.44C49.5967 50.8133 48.9667 51 48.08 51H37.3C36.4133 51 35.76 50.8133 35.34 50.44C34.9667 50.02 34.78 49.3667 34.78 48.48V23.84L30.65 31.47C30.23 32.2633 29.7167 32.8467 29.11 33.22C28.55 33.5467 27.8267 33.71 26.94 33.71H24.14C23.2533 33.71 22.5067 33.5467 21.9 33.22C21.34 32.8467 20.85 32.2633 20.43 31.47L16.3 23.84V48.48C16.3 49.3667 16.09 50.02 15.67 50.44C15.2967 50.8133 14.6667 51 13.78 51Z" fill="#F94D6A"/>
</svg>
