<svg width="47" height="46" viewBox="0 0 47 46" fill="none" xmlns="http://www.w3.org/2000/svg">
<rect x="1.12251" y="0.581757" width="45" height="45" rx="10" transform="rotate(0.346526 1.12251 0.581757)" fill="#402845"/>
<path d="M16.1598 38.0608L10.1999 38.0248C9.69325 38.0217 9.32057 37.9128 9.08186 37.698C8.86998 37.4567 8.76558 37.0828 8.76864 36.5761L8.9254 10.6566C8.92847 10.1499 9.03731 9.79056 9.25193 9.57853C9.49338 9.33998 9.86743 9.22224 10.3741 9.22531L16.814 9.26425C17.2406 9.26683 17.5867 9.36226 17.8523 9.55054C18.1445 9.73898 18.4093 10.0472 18.6467 10.4754L22.2072 17.017C22.3391 17.2578 22.4447 17.4318 22.524 17.5389C22.63 17.6462 22.7631 17.7004 22.9231 17.7014L23.283 17.7035C23.443 17.7045 23.5634 17.6519 23.644 17.5457C23.7513 17.4397 23.8724 17.2671 24.0071 17.0279L27.6065 10.5295C27.8491 10.1043 28.1043 9.79921 28.3721 9.61416C28.6665 9.42927 29.0271 9.33812 29.4537 9.3407L35.9336 9.37989C36.4403 9.38296 36.7995 9.50513 37.0114 9.74642C37.2501 9.9612 37.3679 10.3219 37.3649 10.8286L37.2081 36.7481C37.2051 37.2548 37.0828 37.6274 36.8414 37.8659C36.6267 38.0779 36.2661 38.1824 35.7594 38.1794L29.5996 38.1421C29.0929 38.139 28.7202 38.0301 28.4815 37.8153C28.2696 37.5741 28.1652 37.2001 28.1683 36.6934L28.2534 22.6137L25.8671 26.9593C25.6244 27.4112 25.329 27.7428 24.9811 27.954C24.66 28.1387 24.2461 28.2296 23.7394 28.2265L22.1394 28.2168C21.6328 28.2137 21.2067 28.1178 20.8612 27.9291C20.5425 27.7138 20.2645 27.3788 20.0272 26.924L17.6936 22.5498L17.6085 36.6296C17.6054 37.1362 17.4832 37.5088 17.2417 37.7474C17.0271 37.9594 16.6665 38.0639 16.1598 38.0608Z" fill="#F94D6A"/>
</svg>
